# xmcd
#
# Track frame offsets: 
#        150
#        19493
#        31576
#        46720
#        59182
#        80117
#        98010
#        112622
#        128102
#        149804
#        165250
#        190145
#        205200
#        218901
#        236385
#
# Disc length: 3442 seconds
#
# Revision: 0
# Processed by: cddbd v1.5.2PL0 Copyright (c) Steve Scherf et al.
# Submitted via: ExactAudioCopy v0.99pb5
#
DISCID=cb0d700f
DTITLE=Scarlett Andrews and Christian Christl - Vaudeville Blues and Boogi
DTITLE=e Woogie
DYEAR=2010
DGENRE=Blues and Boogie
TTITLE0=Baby, Won't You Please Come Home
TTITLE1=Wild Women Don't Have The Blues
TTITLE2=Makin Whoopee
TTITLE3=Swing Me, Baby
TTITLE4=Sugar In My Bowl
TTITLE5=I Like The Way You Kiss Me
TTITLE6=Handy Man
TTITLE7=Rocket Mama
TTITLE8=Women Be Wise
TTITLE9=You Gotta Know How
TTITLE10=Que Sera, Sera
TTITLE11=You'd Be Surprised
TTITLE12=Flip, Flop and Fly
TTITLE13=Winter Medley
TTITLE14=In The Morning
EXTD=
EXTT0=
EXTT1=
EXTT2=
EXTT3=
EXTT4=
EXTT5=
EXTT6=
EXTT7=
EXTT8=
EXTT9=
EXTT10=
EXTT11=
EXTT12=
EXTT13=
EXTT14=
PLAYORDER=
